<?xml version="1.0" encoding="utf-8"?>
<!-- Generator: Adobe Illustrator 19.0.0, SVG Export Plug-In . SVG Version: 6.00 Build 0)  -->
<svg version="1.1" id="Ebene_1" xmlns="http://www.w3.org/2000/svg" xmlns:xlink="http://www.w3.org/1999/xlink" x="0px" y="0px"
	 viewBox="324 237 1024 340" style="enable-background:new 324 237 1024 340;" xml:space="preserve">
<style type="text/css">
	.st0{fill:#FFFFFF;}
	.st1{fill:none;stroke:#FFFFFF;stroke-width:1.5;}
</style>
<g id="XMLID_93_">
	<path id="XMLID_94_" class="st0" d="M372.5,307.1c0,24.3-11.5,31.6-26.6,31.6c-4.3,0-9.1-0.9-11.9-1.9l1.5-8.4
		c2.4,0.9,5.6,1.5,9.5,1.5c11,0,17.1-4.8,17.1-23.6v-63.7h10.4V307.1z"/>
	<path id="XMLID_96_" class="st0" d="M485.3,337.2h-11l-10.2-30.7h-32.9l-10,30.7h-10.6l31.4-94.6h11.9L485.3,337.2z M462.2,298.4
		l-9.3-28.1c-1.9-6.5-3.7-12.3-4.8-18h-0.4c-1.3,5.6-3,11.7-4.8,17.5l-9.5,28.4h28.8L462.2,298.4L462.2,298.4z"/>
	<path id="XMLID_99_" class="st0" d="M590.8,337.2h-10.4l-30.1-49.8c-6.3-10.6-12.3-21.2-17.1-31.6l-0.4,0.2
		c0.9,12.1,1.1,23.2,1.1,39.4v41.8h-9.7v-94.6H535l30.5,49.8c6.7,11.3,12.1,21.2,16.5,31l0.2-0.2c-1.1-13.2-1.3-24.5-1.3-39.4v-41.4
		h9.7v94.8H590.8z"/>
	<path id="XMLID_101_" class="st0" d="M690.6,243.9c5.4-1.1,12.8-1.9,21.4-1.9c30.5,0,33.1,19.7,33.1,27.1
		c0,22.3-17.8,30.1-34.6,30.1c-3.7,0-6.9-0.2-9.7-0.9v39h-10.4V244h0.2V243.9z M700.8,289.8c2.6,0.6,6.1,1.1,10,1.1
		c14.9,0,24-7.4,24-21c0-13.6-9.7-19.5-22.5-19.5c-5.2,0-9.1,0.4-11.3,1.1v38.3H700.8z"/>
	<path id="XMLID_104_" class="st0" d="M853.9,337.2h-10.8l-10.2-30.7H800l-10,30.7h-10.6l31.4-94.6h11.9L853.9,337.2z M830.7,298.4
		l-9.3-28.1c-1.9-6.5-3.7-12.3-4.8-18h-0.4c-1.3,5.6-3,11.7-4.8,17.5l-9.5,28.4h28.8V298.4z"/>
	<path id="XMLID_107_" class="st0" d="M957.8,299.3c0,28.4-14.7,39.4-33.6,39.4c-17.5,0-31.6-10.4-31.6-39v-57.2H903v57.4
		c0,21.4,9.5,30.1,21.9,30.1c13.6,0,22.7-9.1,22.7-30.1v-57.4H958v56.7L957.8,299.3L957.8,299.3z"/>
	<path id="XMLID_109_" class="st0" d="M1053.3,337.2h-49.4v-94.6h10.4v86h39.2v8.7h-0.2V337.2z"/>
	<path id="XMLID_112_" class="st0" d="M1133.6,254.3c-2.8-1.7-8.7-4.3-16.7-4.3c-13.2,0-18.2,8-18.2,14.9c0,9.3,5.6,14.1,18.4,19.5
		c15.4,6.5,23.2,14.3,23.2,27.9c0,14.9-11,26.6-31.4,26.6c-8.7,0-18-2.6-22.5-6.1l2.8-8.7c5.2,3.2,12.8,5.8,20.4,5.8
		c12.8,0,20.1-6.9,20.1-17.1c0-9.3-5.2-14.9-17.3-19.9c-14.3-5.4-24-13.6-24-26.6c0-14.5,11.7-24.9,29-24.9c8.9,0,15.8,2.2,19.5,4.5
		L1133.6,254.3z"/>
	<path id="XMLID_117_" class="st0" d="M1231.5,337.2h-50v-94.6h47.9v8.7h-37.5v32h35.3v8.7h-35.3v36.6h39.6V337.2z"/>
	<path id="XMLID_119_" class="st0" d="M1338.2,337.2H1328l-30.1-49.8c-6.3-10.6-12.3-21.2-17.1-31.6l-0.4,0.2
		c0.9,12.1,1.1,23.2,1.1,39.4v41.8h-9.7v-94.6h10.8l30.5,49.8c6.7,11.3,12.1,21.2,16.5,31l0.2-0.2c-1.1-13.2-1.3-24.5-1.3-39.4
		v-41.4h9.7V337.2L1338.2,337.2z"/>
</g>
<g id="XMLID_59_">
	<path id="XMLID_60_" class="st0" d="M677.3,436.4c-1.1,0.4-2.8,0.9-5.2,0.9c-5.4,0-10-3.5-10-10.8c0-6.9,4.3-11,10.4-11
		c2.6,0,4.1,0.4,4.8,0.9l-0.6,1.9c-1.1-0.4-2.4-0.9-4.1-0.9c-4.8,0-8,3.2-8,9.1c0,5.6,3,8.9,8,8.9c1.5,0,3.2-0.4,4.3-0.9
		L677.3,436.4z"/>
	<path id="XMLID_62_" class="st0" d="M703.9,426.2c0,7.4-4.1,11-9.1,11c-5.2,0-9.1-4.1-9.1-10.8c0-6.9,3.9-11,9.3-11
		C700.4,415.3,703.9,419.7,703.9,426.2z M688.1,426.4c0,4.5,2.4,8.9,6.7,8.9c4.3,0,6.7-4.3,6.7-9.1c0-4.3-2.2-8.9-6.7-8.9
		S688.1,421.8,688.1,426.4z"/>
	<path id="XMLID_65_" class="st0" d="M733.8,437h-2.4l-0.4-9.5c-0.2-3-0.4-6.9-0.4-9.1l0,0c-0.6,2.4-1.5,5-2.6,8l-3.7,10.6h-1.7
		l-3.5-10.4c-1.1-3-1.7-5.6-2.4-8.2l0,0c0,2.6-0.2,6.1-0.4,9.3l-0.6,9.3h-2.2l1.5-21.2h2.8l3.7,10.8c0.9,2.6,1.5,5,2.2,7.1l0,0
		c0.4-2.2,1.3-4.3,2.2-7.1l3.9-10.8h2.8L733.8,437z"/>
	<path id="XMLID_67_" class="st0" d="M744.4,416c1.3-0.2,2.8-0.4,4.8-0.4c6.9,0,7.4,4.3,7.4,6.1c0,5-3.9,6.7-7.8,6.7
		c-0.9,0-1.5,0-2.2-0.2v8.7h-2.4v-20.8h0.2V416z M746.8,426.4c0.6,0.2,1.3,0.2,2.2,0.2c3.2,0,5.4-1.7,5.4-4.8c0-3-2.2-4.3-5-4.3
		c-1.1,0-1.9,0.2-2.6,0.2V426.4L746.8,426.4z"/>
	<path id="XMLID_70_" class="st0" d="M781.2,428.3c0,6.3-3.2,8.9-7.6,8.9c-3.9,0-7.1-2.4-7.1-8.7v-12.8h2.4v12.8
		c0,4.8,2.2,6.7,5,6.7c3,0,5.2-2.2,5.2-6.7v-12.8h2.4v12.6H781.2z"/>
	<path id="XMLID_72_" class="st0" d="M804.8,417.7h-6.3V437h-2.4v-19.3h-6.3v-1.9h14.7v1.9H804.8z"/>
	<path id="XMLID_74_" class="st0" d="M824.7,437h-11.3v-21.2h10.8v1.9h-8.4v7.1h8v1.9h-8v8.2h8.9V437z"/>
	<path id="XMLID_76_" class="st0" d="M842.7,426.8c1.7,0.4,2.6,2.2,3,4.3c0.6,3,1.1,5,1.5,5.6h-2.4c-0.4-0.6-0.9-2.4-1.3-5.2
		c-0.6-3-1.7-4.3-4.3-4.3h-2.6v9.3h-2.4v-21c1.3-0.2,3.2-0.4,4.8-0.4c2.8,0,4.5,0.6,5.8,1.7c1.1,0.9,1.5,2.4,1.5,3.9
		C846.8,424,845.1,426,842.7,426.8L842.7,426.8z M839.5,425.7c3,0,4.8-1.7,4.8-4.3c0-3.2-2.4-4.1-5-4.1c-1.3,0-2.2,0.2-2.6,0.2v8.2
		L839.5,425.7L839.5,425.7z"/>
	<path id="XMLID_79_" class="st0" d="M879.3,418.4c-0.6-0.4-1.9-1.1-3.7-1.1c-3,0-4.1,1.7-4.1,3.2c0,2.2,1.3,3.2,4.1,4.3
		c3.5,1.5,5.2,3.2,5.2,6.3c0,3.5-2.4,6.1-6.9,6.1c-1.9,0-4.1-0.6-5-1.3l0.6-1.9c1.1,0.6,2.8,1.3,4.5,1.3c2.8,0,4.5-1.5,4.5-3.9
		c0-2.2-1.1-3.5-3.9-4.5c-3.2-1.3-5.4-3-5.4-6.1c0-3.2,2.6-5.6,6.5-5.6c1.9,0,3.5,0.4,4.3,1.1L879.3,418.4z"/>
	<path id="XMLID_81_" class="st0" d="M904.8,436.4c-1.1,0.4-2.8,0.9-5.2,0.9c-5.4,0-10-3.5-10-10.8c0-6.9,4.3-11,10.4-11
		c2.6,0,4.1,0.4,4.8,0.9l-0.6,1.9c-1.1-0.4-2.4-0.9-4.1-0.9c-4.8,0-8,3.2-8,9.1c0,5.6,3,8.9,8,8.9c1.5,0,3.2-0.4,4.3-0.9
		L904.8,436.4z"/>
	<path id="XMLID_83_" class="st0" d="M914.6,415.8h2.4V437h-2.4V415.8z"/>
	<path id="XMLID_85_" class="st0" d="M939.3,437H928v-21.2h10.8v1.9h-8.4v7.1h8v1.9h-8v8.2h8.9V437L939.3,437z"/>
	<path id="XMLID_87_" class="st0" d="M964,437h-2.4l-6.7-11.3c-1.5-2.4-2.8-4.8-3.9-7.1h-0.2c0.2,2.6,0.2,5.2,0.2,8.9v9.3h-2.2
		v-21.2h2.4l6.9,11.3c1.5,2.6,2.8,4.8,3.7,6.9l0,0c-0.2-3-0.2-5.4-0.2-8.9v-9.3h2.2V437H964L964,437z"/>
	<path id="XMLID_89_" class="st0" d="M989.1,436.4c-1.1,0.4-2.8,0.9-5.2,0.9c-5.4,0-10-3.5-10-10.8c0-6.9,4.3-11,10.4-11
		c2.6,0,4.1,0.4,4.8,0.9l-0.6,1.9c-1.1-0.4-2.4-0.9-4.1-0.9c-4.8,0-8,3.2-8,9.1c0,5.6,3,8.9,8,8.9c1.5,0,3.2-0.4,4.3-0.9
		L989.1,436.4z"/>
	<path id="XMLID_91_" class="st0" d="M1010.1,437h-11.3v-21.2h10.8v1.9h-8.4v7.1h8v1.9h-8v8.2h8.9V437L1010.1,437z"/>
</g>
<g id="XMLID_5_">
	<path id="XMLID_8_" class="st0" d="M597.7,490.3h-2.4l-2.4-6.9h-7.4l-2.2,6.9h-2.6l6.9-21.2h2.6L597.7,490.3z M592.3,481.6
		l-2.2-6.3c-0.4-1.5-0.9-2.8-1.1-4.1l0,0c-0.2,1.3-0.6,2.6-1.1,3.9l-2.2,6.3h6.5L592.3,481.6L592.3,481.6z"/>
	<path id="XMLID_11_" class="st0" d="M621.7,481.8c0,6.3-3.2,8.9-7.6,8.9c-3.9,0-7.1-2.4-7.1-8.7v-12.8h2.4V482c0,4.8,2.2,6.7,5,6.7
		c3,0,5.2-2.2,5.2-6.7v-12.8h2.4v12.6H621.7z"/>
	<path id="XMLID_13_" class="st0" d="M632.8,469.3c1.5-0.2,3.5-0.4,5.4-0.4c8.4,0,11,5,11,10.2c0,3.5-0.9,6.3-2.8,8.2s-5,3-8.9,3
		c-1.7,0-3.2,0-4.5-0.2v-20.8H632.8L632.8,469.3z M635.2,488.3c0.6,0.2,1.7,0.2,2.6,0.2c5.6,0,8.9-3.2,8.9-9.3c0-5.4-3-8.4-8.4-8.4
		c-1.3,0-2.4,0.2-3,0.2L635.2,488.3L635.2,488.3z"/>
	<path id="XMLID_16_" class="st0" d="M659,469h2.4v21.2H659V469z"/>
	<path id="XMLID_18_" class="st0" d="M689.5,479.4c0,7.4-4.1,11-9.1,11c-5.2,0-9.1-4.1-9.1-10.8c0-6.9,3.9-11,9.3-11
		C686,468.6,689.5,472.9,689.5,479.4z M673.7,479.7c0,4.5,2.4,8.9,6.7,8.9c4.3,0,6.7-4.3,6.7-9.1c0-4.3-2.2-8.9-6.7-8.9
		C675.7,470.6,673.7,475.3,673.7,479.7z"/>
	<path id="XMLID_21_" class="st0" d="M713.5,469l-7.4,21.2h-2.4l-6.7-21.2h2.6l3.2,10.6c0.9,2.8,1.7,5.6,2.2,8l0,0
		c0.6-2.4,1.5-5.2,2.4-8l3.5-10.6H713.5z"/>
	<path id="XMLID_23_" class="st0" d="M722.2,469h2.4v21.2h-2.4V469z"/>
	<path id="XMLID_25_" class="st0" d="M745.2,471.6c-0.6-0.4-1.9-1.1-3.7-1.1c-3,0-4.1,1.7-4.1,3.2c0,2.2,1.3,3.2,4.1,4.3
		c3.5,1.5,5.2,3.2,5.2,6.3c0,3.5-2.4,6.1-6.9,6.1c-1.9,0-4.1-0.6-5-1.3l0.6-1.9c1.1,0.6,2.8,1.3,4.5,1.3c2.8,0,4.5-1.5,4.5-3.9
		c0-2.2-1.1-3.5-3.9-4.5c-3.2-1.3-5.4-3-5.4-6.1c0-3.2,2.6-5.6,6.5-5.6c1.9,0,3.5,0.4,4.3,1.1L745.2,471.6z"/>
	<path id="XMLID_27_" class="st0" d="M771.4,481.8c0,6.3-3.2,8.9-7.6,8.9c-3.9,0-7.1-2.4-7.1-8.7v-12.8h2.4V482c0,4.8,2.2,6.7,5,6.7
		c3,0,5.2-2.2,5.2-6.7v-12.8h2.4v12.6H771.4z"/>
	<path id="XMLID_29_" class="st0" d="M797.8,490.3h-2.6l-2.4-6.9h-7.4l-2.2,6.9h-2.4l6.9-21.2h2.6L797.8,490.3z M792.6,481.6
		l-2.2-6.3c-0.4-1.5-0.9-2.8-1.1-4.1l0,0c-0.2,1.3-0.6,2.6-1.1,3.9l-2.2,6.3h6.5L792.6,481.6L792.6,481.6z"/>
	<path id="XMLID_32_" class="st0" d="M818.3,490.3h-11v-21.2h2.4v19.3h8.9v1.9L818.3,490.3L818.3,490.3z"/>
	<path id="XMLID_34_" class="st0" d="M860.6,490.3h-2.4l-0.4-9.5c-0.2-3-0.4-6.9-0.4-9.1l0,0c-0.6,2.4-1.5,5-2.6,8l-3.7,10.6h-1.7
		l-3.5-10.4c-1.1-3-1.7-5.6-2.4-8.2l0,0c0,2.6-0.2,6.1-0.4,9.3l-0.6,9.3h-2.2l1.5-21.2h2.8l3.7,10.8c0.9,2.6,1.5,5,2.2,7.1l0,0
		c0.4-2.2,1.3-4.3,2.2-7.1l3.9-10.8h2.8L860.6,490.3z"/>
	<path id="XMLID_36_" class="st0" d="M882.2,490.3h-11.3v-21.2h10.8v1.9h-8.4v7.1h8v1.9h-8v8.2h8.9V490.3L882.2,490.3z"/>
	<path id="XMLID_38_" class="st0" d="M892,469.3c1.5-0.2,3.5-0.4,5.4-0.4c8.4,0,11,5,11,10.2c0,3.5-0.9,6.3-2.8,8.2s-5,3-8.9,3
		c-1.7,0-3.2,0-4.5-0.2v-20.8H892L892,469.3z M894.3,488.3c0.6,0.2,1.7,0.2,2.6,0.2c5.6,0,8.9-3.2,8.9-9.3c0-5.4-3-8.4-8.4-8.4
		c-1.3,0-2.4,0.2-3,0.2L894.3,488.3L894.3,488.3z"/>
	<path id="XMLID_41_" class="st0" d="M918.2,469h2.4v21.2h-2.4V469z"/>
	<path id="XMLID_43_" class="st0" d="M947,490.3h-2.4l-2.4-6.9h-7.4l-2.2,6.9h-2.4l6.9-21.2h2.6L947,490.3z M941.8,481.6l-2.2-6.3
		c-0.4-1.5-0.9-2.8-1.1-4.1l0,0c-0.2,1.3-0.6,2.6-1.1,3.9l-2.2,6.3h6.5L941.8,481.6L941.8,481.6z"/>
	<path id="XMLID_46_" class="st0" d="M969.3,469.3c1.5-0.2,3.5-0.4,5.4-0.4c8.4,0,11,5,11,10.2c0,3.5-0.9,6.3-2.8,8.2s-5,3-8.9,3
		c-1.7,0-3.2,0-4.5-0.2v-20.8H969.3L969.3,469.3z M971.6,488.3c0.6,0.2,1.7,0.2,2.6,0.2c5.6,0,8.9-3.2,8.9-9.3c0-5.4-3-8.4-8.4-8.4
		c-1.3,0-2.4,0.2-3,0.2L971.6,488.3L971.6,488.3z"/>
	<path id="XMLID_49_" class="st0" d="M1006.7,490.3h-11.3v-21.2h10.8v1.9h-8.4v7.1h8v1.9h-8v8.2h8.9V490.3L1006.7,490.3z"/>
	<path id="XMLID_51_" class="st0" d="M1026,471.6c-0.6-0.4-1.9-1.1-3.7-1.1c-3,0-4.1,1.7-4.1,3.2c0,2.2,1.3,3.2,4.1,4.3
		c3.5,1.5,5.2,3.2,5.2,6.3c0,3.5-2.4,6.1-6.9,6.1c-1.9,0-4.1-0.6-5-1.3l0.6-1.9c1.1,0.6,2.8,1.3,4.5,1.3c2.8,0,4.5-1.5,4.5-3.9
		c0-2.2-1.1-3.5-3.9-4.5c-3.2-1.3-5.4-3-5.4-6.1c0-3.2,2.6-5.6,6.5-5.6c1.9,0,3.5,0.4,4.3,1.1L1026,471.6z"/>
	<path id="XMLID_53_" class="st0" d="M1037.5,469h2.4v21.2h-2.4V469z"/>
	<path id="XMLID_55_" class="st0" d="M1066,489.4c-1.1,0.4-3.5,1.1-6.1,1.1c-8.2,0-10.4-6.3-10.4-10.6c0-6.5,4.1-11,10.8-11
		c1.9,0,3.9,0.4,5,0.9l-0.6,1.9c-1.1-0.4-2.4-0.9-4.3-0.9c-5,0-8.4,3.2-8.4,8.9c0,5.7,3.2,8.9,8,8.9c1.7,0,3-0.2,3.7-0.6v-6.7h-4.3
		v-1.9h6.5v10.2h0.1V489.4z"/>
	<path id="XMLID_57_" class="st0" d="M1091.6,490.3h-2.4l-6.7-11.3c-1.5-2.4-2.8-4.8-3.9-7.1h-0.2c0.2,2.6,0.2,5.2,0.2,8.9v9.3h-2.2
		v-21.2h2.4l6.9,11.3c1.5,2.6,2.8,4.8,3.7,6.9l0,0c-0.2-3-0.2-5.4-0.2-8.9v-9.3h2.2v21.4L1091.6,490.3L1091.6,490.3z"/>
</g>
<line id="XMLID_1_" class="st1" x1="694.2" y1="538.1" x2="978" y2="538.1"/>
</svg>
