<?xml version="1.0" encoding="UTF-8" standalone="no"?>
<svg
   xmlns:dc="http://purl.org/dc/elements/1.1/"
   xmlns:cc="http://creativecommons.org/ns#"
   xmlns:rdf="http://www.w3.org/1999/02/22-rdf-syntax-ns#"
   xmlns:svg="http://www.w3.org/2000/svg"
   xmlns="http://www.w3.org/2000/svg"
   viewBox="0 0 618.38666 183.8"
   height="183.8"
   width="618.38666"
   xml:space="preserve"
   id="svg2"
   version="1.1"><metadata
     id="metadata8"><rdf:RDF><cc:Work
         rdf:about=""><dc:format>image/svg+xml</dc:format><dc:type
           rdf:resource="http://purl.org/dc/dcmitype/StillImage" /></cc:Work></rdf:RDF></metadata><defs
     id="defs6" /><g
     transform="matrix(1.3333333,0,0,-1.3333333,0,183.8)"
     id="g10"><g
       transform="scale(0.1)"
       id="g12"><path
         id="path14"
         style="fill:#ffffff;fill-opacity:1;fill-rule:nonzero;stroke:none"
         d="m 177.906,1073.73 c 0,-111.91 -53.375,-145.769 -123.3826,-145.769 -19.5117,0 -42.4726,4.016 -54.5234,9.18 l 6.89063,39.023 c 10.90237,-4.012 26.39457,-7.461 44.18357,-7.461 50.5038,0 79.1988,22.383 79.1988,109.037 v 293.83 h 47.633 v -297.84" /><path
         id="path16"
         style="fill:#ffffff;fill-opacity:1;fill-rule:nonzero;stroke:none"
         d="m 591.121,1114.47 -43.039,129.7 c -9.18,29.84 -16.641,57.38 -22.379,83.21 h -1.723 c -5.738,-26.4 -13.777,-53.94 -21.808,-81.49 L 458.559,1114.47 Z M 698.441,934.848 H 647.938 L 600.879,1076.59 H 448.805 L 402.891,934.848 H 354.109 L 498.73,1372.15 h 55.094 L 698.441,934.848" /><path
         id="path18"
         style="fill:#ffffff;fill-opacity:1;fill-rule:nonzero;stroke:none"
         d="M 1185.13,934.848 H 1137.5 L 998.047,1164.97 c -29.27,48.78 -57.387,97.56 -78.621,145.77 l -2.297,-0.58 c 4.019,-55.66 4.594,-106.73 4.594,-182.49 V 934.848 h -44.766 v 437.302 h 49.93 l 141.173,-230.13 c 30.99,-52.23 56.24,-97.56 76.33,-142.895 l 1.15,0.57 c -4.59,60.825 -5.75,113.055 -5.75,181.915 v 190.54 h 45.34 V 934.848" /><path
         id="path20"
         style="fill:#ffffff;fill-opacity:1;fill-rule:nonzero;stroke:none"
         d="m 1693.65,1154.07 c 12.05,-3.44 27.55,-4.59 45.91,-4.59 68.86,0 110.76,34.43 110.76,96.98 0,62.56 -44.76,90.11 -104.45,90.11 -24.1,0 -41.89,-2.3 -52.22,-4.59 z m -47.63,212.34 c 25.25,4.59 58.53,8.6 99.28,8.6 141.17,0 152.65,-90.67 152.65,-125.1 0,-102.72 -82.07,-139.45 -159.54,-139.45 -16.64,0 -31.56,0.57 -44.76,4.01 V 934.848 h -47.63 v 431.562" /><path
         id="path22"
         style="fill:#ffffff;fill-opacity:1;fill-rule:nonzero;stroke:none"
         d="m 2293.38,1114.47 -43.03,129.7 c -9.18,29.84 -16.64,57.38 -22.39,83.21 h -1.71 c -5.75,-26.4 -13.78,-53.94 -21.82,-81.49 l -43.61,-131.42 z M 2400.7,934.848 h -50.5 l -47.06,141.742 h -152.08 l -45.91,-141.742 h -48.78 l 144.62,437.302 h 55.09 L 2400.7,934.848" /><path
         id="path24"
         style="fill:#ffffff;fill-opacity:1;fill-rule:nonzero;stroke:none"
         d="m 2880.51,1110.46 c 0,-131.425 -67.71,-182.499 -154.95,-182.499 -81.48,0 -146.34,47.633 -146.34,179.629 v 263.98 h 47.64 v -264.56 c 0,-99.28 43.61,-139.451 101,-139.451 63.13,0 105.02,42.471 105.02,139.451 v 264.56 h 47.63 v -261.11" /><path
         id="path26"
         style="fill:#ffffff;fill-opacity:1;fill-rule:nonzero;stroke:none"
         d="m 3321.29,934.848 h -228.4 v 437.302 h 47.63 V 975.594 h 180.77 v -40.746" /><path
         id="path28"
         style="fill:#ffffff;fill-opacity:1;fill-rule:nonzero;stroke:none"
         d="m 3692.63,1318.2 c -12.62,8.03 -40.16,20.09 -76.89,20.09 -60.83,0 -83.79,-37.31 -83.79,-68.87 0,-43.04 26.39,-64.85 84.93,-89.53 70.6,-29.84 106.75,-65.99 106.75,-128.54 0,-69.444 -50.51,-122.819 -144.62,-122.819 -39.6,0 -82.64,12.055 -104.45,27.551 l 13.2,39.594 c 23.52,-15.492 58.53,-26.973 94.12,-26.973 58.54,0 92.97,31.567 92.97,78.627 0,43.04 -23.54,69.44 -80.35,92.4 -66,24.67 -110.75,63.12 -110.75,123.38 0,66.57 53.94,115.35 133.71,115.35 41.31,0 72.88,-10.33 89.53,-20.66 l -14.36,-39.6" /><path
         id="path30"
         style="fill:#ffffff;fill-opacity:1;fill-rule:nonzero;stroke:none"
         d="m 4144.89,934.848 h -230.71 v 437.302 h 220.95 v -40.17 h -173.31 v -148.07 h 162.98 v -39.6 H 3961.82 V 975.02 h 183.07 v -40.172" /><path
         id="path32"
         style="fill:#ffffff;fill-opacity:1;fill-rule:nonzero;stroke:none"
         d="m 4637.89,934.848 h -47.63 l -139.45,230.122 c -29.27,48.78 -57.4,97.56 -78.63,145.77 l -2.29,-0.58 c 4.01,-55.66 4.59,-106.73 4.59,-182.49 V 934.848 h -44.77 v 437.302 h 49.93 l 141.18,-230.13 c 30.98,-52.23 56.24,-97.56 76.32,-142.895 l 1.15,0.57 c -4.59,60.825 -5.74,113.055 -5.74,181.915 v 190.54 h 45.34 V 934.848" /><path
         id="path34"
         style="fill:#ffffff;fill-opacity:1;fill-rule:nonzero;stroke:none"
         d="m 1206.27,473.891 c -4.5,-2.188 -13.25,-4.375 -24.44,-4.375 -25.21,0 -45.54,16.336 -45.54,49.523 0,31.645 19.69,51.324 48.37,51.324 11.71,0 18.52,-2.445 21.61,-3.988 l -2.83,-9.004 c -4.5,2.188 -10.8,3.988 -18.52,3.988 -22.25,0 -37.43,-14.921 -37.43,-41.933 0,-25.727 13.89,-40.906 36.78,-40.906 7.46,0 14.8,1.671 19.69,3.988 l 2.31,-8.617" /><path
         id="path36"
         style="fill:#ffffff;fill-opacity:1;fill-rule:nonzero;stroke:none"
         d="m 1256.89,519.426 c 0,-20.84 10.81,-41.16 30.74,-41.16 20.2,0 30.88,19.675 30.88,42.058 0,19.684 -9.65,41.289 -30.62,41.289 -21.61,0 -31,-21.351 -31,-42.187 z m 72.81,1.414 c 0,-34.477 -19.3,-51.453 -42.45,-51.453 -24.32,0 -41.55,19.168 -41.55,49.781 0,31.898 18.14,51.324 42.7,51.324 25.09,0 41.3,-20.07 41.3,-49.652" /><path
         id="path38"
         style="fill:#ffffff;fill-opacity:1;fill-rule:nonzero;stroke:none"
         d="m 1467.9,470.93 h -10.55 l -2.44,44.121 c -0.77,14.019 -1.8,32.16 -1.68,42.191 h -0.38 c -3.22,-11.062 -7.21,-23.152 -11.97,-36.789 l -17.49,-49.137 h -7.85 l -16.33,48.11 c -4.76,14.144 -8.49,26.496 -11.19,37.816 h -0.39 c -0.26,-11.961 -1.03,-28.172 -1.93,-43.219 L 1383,470.93 h -10.16 l 6.82,98.019 h 13.12 l 17.23,-49.781 c 4.12,-12.223 7.33,-22.641 9.91,-32.805 h 0.38 c 2.45,9.91 5.79,20.2 10.16,32.805 l 17.88,49.781 h 13.38 l 6.18,-98.019" /><path
         id="path40"
         style="fill:#ffffff;fill-opacity:1;fill-rule:nonzero;stroke:none"
         d="m 1527.11,520.066 c 2.7,-0.769 6.18,-1.027 10.29,-1.027 15.44,0 24.83,7.719 24.83,21.738 0,14.02 -10.03,20.2 -23.41,20.2 -5.4,0 -9.39,-0.52 -11.71,-1.032 z m -10.67,47.594 c 5.65,1.028 13.12,1.934 22.25,1.934 31.64,0 34.22,-20.328 34.22,-28.043 0,-23.028 -18.4,-31.262 -35.76,-31.262 -3.73,0 -7.08,0.133 -10.04,0.906 V 470.93 h -10.67 v 96.73" /><path
         id="path42"
         style="fill:#ffffff;fill-opacity:1;fill-rule:nonzero;stroke:none"
         d="m 1686.82,510.289 c 0,-29.457 -15.18,-40.902 -34.74,-40.902 -18.26,0 -32.8,10.676 -32.8,40.261 v 59.172 h 10.68 v -59.3 c 0,-22.25 9.78,-31.254 22.64,-31.254 14.15,0 23.54,9.515 23.54,31.254 v 59.3 h 10.68 v -58.531" /><path
         id="path44"
         style="fill:#ffffff;fill-opacity:1;fill-rule:nonzero;stroke:none"
         d="m 1795.57,559.816 h -28.95 V 470.93 h -10.67 v 88.886 h -28.82 v 9.004 h 68.44 v -9.004" /><path
         id="path46"
         style="fill:#ffffff;fill-opacity:1;fill-rule:nonzero;stroke:none"
         d="m 1887.48,470.93 h -51.71 v 98.019 h 49.53 v -9.004 h -38.85 v -33.187 h 36.53 v -8.879 h -36.53 v -37.945 h 41.03 v -9.004" /><path
         id="path48"
         style="fill:#ffffff;fill-opacity:1;fill-rule:nonzero;stroke:none"
         d="m 1955.98,522.512 c 13.64,0 22.38,7.715 22.38,19.551 0,14.539 -10.93,19.039 -22.89,19.039 -5.79,0 -9.9,-0.512 -12.09,-1.032 v -37.558 z m 14.92,-4.633 c 7.6,-2.441 12.1,-9.774 14.41,-20.449 3.09,-14.153 5.27,-22.77 7.2,-26.5 h -11.06 c -1.54,2.832 -3.73,11.453 -6.3,23.668 -2.83,13.636 -8.23,19.683 -19.81,19.683 h -11.96 V 470.93 h -10.68 v 96.601 c 6.05,1.289 14.54,2.063 22.26,2.063 12.73,0 21.09,-2.574 26.88,-7.981 4.63,-4.242 7.33,-10.929 7.33,-18.261 0,-12.993 -7.85,-21.356 -18.27,-25.086 v -0.387" /><path
         id="path50"
         style="fill:#ffffff;fill-opacity:1;fill-rule:nonzero;stroke:none"
         d="m 2139.58,556.859 c -2.84,1.797 -9.01,4.5 -17.24,4.5 -13.63,0 -18.78,-8.363 -18.78,-15.437 0,-9.645 5.92,-14.531 19.03,-20.067 15.82,-6.687 23.93,-14.792 23.93,-28.812 0,-15.566 -11.32,-27.527 -32.41,-27.527 -8.88,0 -18.53,2.699 -23.41,6.175 l 2.96,8.872 c 5.27,-3.469 13.11,-6.043 21.09,-6.043 13.12,0 20.84,7.074 20.84,17.621 0,9.648 -5.27,15.566 -18.01,20.714 -14.79,5.532 -24.83,14.149 -24.83,27.657 0,14.914 12.1,25.851 29.98,25.851 9.26,0 16.33,-2.312 20.06,-4.633 l -3.21,-8.871" /><path
         id="path52"
         style="fill:#ffffff;fill-opacity:1;fill-rule:nonzero;stroke:none"
         d="m 2257.35,473.891 c -4.5,-2.188 -13.25,-4.375 -24.44,-4.375 -25.22,0 -45.54,16.336 -45.54,49.523 0,31.645 19.68,51.324 48.37,51.324 11.7,0 18.51,-2.445 21.61,-3.988 l -2.83,-9.004 c -4.51,2.188 -10.81,3.988 -18.53,3.988 -22.25,0 -37.43,-14.921 -37.43,-41.933 0,-25.727 13.9,-40.906 36.79,-40.906 7.46,0 14.79,1.671 19.67,3.988 l 2.33,-8.617" /><path
         id="path54"
         style="fill:#ffffff;fill-opacity:1;fill-rule:nonzero;stroke:none"
         d="m 2302.44,568.949 h 10.67 V 470.93 h -10.67 v 98.019" /><path
         id="path56"
         style="fill:#ffffff;fill-opacity:1;fill-rule:nonzero;stroke:none"
         d="m 2416.24,470.93 h -51.71 v 98.019 h 49.52 v -9.004 h -38.85 v -33.187 h 36.53 v -8.879 h -36.53 v -37.945 h 41.04 v -9.004" /><path
         id="path58"
         style="fill:#ffffff;fill-opacity:1;fill-rule:nonzero;stroke:none"
         d="m 2530.52,470.93 h -10.67 l -31.26,51.582 c -6.56,10.933 -12.86,21.867 -17.63,32.672 l -0.51,-0.125 c 0.9,-12.485 1.03,-23.926 1.03,-40.907 V 470.93 h -10.03 v 98.019 h 11.19 l 31.64,-51.582 c 6.95,-11.707 12.61,-21.867 17.11,-32.031 l 0.26,0.133 c -1.03,13.633 -1.29,25.34 -1.29,40.773 v 42.707 h 10.16 V 470.93" /><path
         id="path60"
         style="fill:#ffffff;fill-opacity:1;fill-rule:nonzero;stroke:none"
         d="m 2646.23,473.891 c -4.51,-2.188 -13.26,-4.375 -24.45,-4.375 -25.21,0 -45.53,16.336 -45.53,49.523 0,31.645 19.67,51.324 48.36,51.324 11.7,0 18.52,-2.445 21.62,-3.988 l -2.84,-9.004 c -4.5,2.188 -10.81,3.988 -18.52,3.988 -22.26,0 -37.43,-14.921 -37.43,-41.933 0,-25.727 13.89,-40.906 36.78,-40.906 7.46,0 14.8,1.671 19.68,3.988 l 2.33,-8.617" /><path
         id="path62"
         style="fill:#ffffff;fill-opacity:1;fill-rule:nonzero;stroke:none"
         d="m 2743.02,470.93 h -51.71 v 98.019 h 49.52 v -9.004 h -38.84 v -33.187 h 36.53 v -8.879 h -36.53 v -37.945 h 41.03 v -9.004" /><path
         id="path64"
         style="fill:#ffffff;fill-opacity:1;fill-rule:nonzero;stroke:none"
         d="m 2891.49,556.859 c -2.83,1.797 -9,4.5 -17.24,4.5 -13.63,0 -18.78,-8.363 -18.78,-15.437 0,-9.645 5.92,-14.531 19.04,-20.067 15.82,-6.687 23.92,-14.792 23.92,-28.812 0,-15.566 -11.32,-27.527 -32.41,-27.527 -8.88,0 -18.52,2.699 -23.41,6.175 l 2.96,8.872 c 5.27,-3.469 13.12,-6.043 21.1,-6.043 13.11,0 20.83,7.074 20.83,17.621 0,9.648 -5.27,15.566 -18,20.714 -14.8,5.532 -24.84,14.149 -24.84,27.657 0,14.914 12.1,25.851 29.98,25.851 9.26,0 16.33,-2.312 20.06,-4.633 l -3.21,-8.871" /><path
         id="path66"
         style="fill:#ffffff;fill-opacity:1;fill-rule:nonzero;stroke:none"
         d="m 3002.31,559.816 h -28.94 V 470.93 h -10.68 v 88.886 h -28.81 v 9.004 h 68.43 v -9.004" /><path
         id="path68"
         style="fill:#ffffff;fill-opacity:1;fill-rule:nonzero;stroke:none"
         d="m 3110.05,510.289 c 0,-29.457 -15.17,-40.902 -34.73,-40.902 -18.26,0 -32.8,10.676 -32.8,40.261 v 59.172 h 10.68 v -59.3 c 0,-22.25 9.77,-31.254 22.63,-31.254 14.16,0 23.55,9.515 23.55,31.254 v 59.3 h 10.67 v -58.531" /><path
         id="path70"
         style="fill:#ffffff;fill-opacity:1;fill-rule:nonzero;stroke:none"
         d="m 3172.1,479.422 c 3.22,-0.52 7.85,-0.645 12.48,-0.645 26.5,0 41.03,15.047 41.03,43.09 0,25.469 -13.63,39.235 -39.1,39.235 -6.17,0 -11.07,-0.645 -14.41,-1.286 z m -10.67,88.238 c 7.2,1.16 15.56,2.059 24.7,2.059 39.35,0 50.67,-23.281 50.67,-47.332 0,-15.567 -4.11,-28.821 -13.38,-38.461 -8.61,-8.879 -22.89,-13.766 -40.77,-13.766 -8.1,0 -15.05,0.258 -21.22,1.028 v 96.472" /><path
         id="path72"
         style="fill:#ffffff;fill-opacity:1;fill-rule:nonzero;stroke:none"
         d="m 3334.24,470.93 h -51.71 v 98.019 h 49.53 v -9.004 h -38.85 v -33.187 h 36.53 v -8.879 h -36.53 v -37.945 h 41.03 v -9.004" /><path
         id="path74"
         style="fill:#ffffff;fill-opacity:1;fill-rule:nonzero;stroke:none"
         d="m 3448.54,470.93 h -10.67 l -31.26,51.582 c -6.57,10.933 -12.86,21.867 -17.63,32.672 l -0.51,-0.125 c 0.9,-12.485 1.03,-23.926 1.03,-40.907 V 470.93 h -10.03 v 98.019 h 11.19 l 31.64,-51.582 c 6.94,-11.707 12.61,-21.867 17.11,-32.031 l 0.25,0.133 c -1.02,13.633 -1.29,25.34 -1.29,40.773 v 42.707 h 10.17 V 470.93" /><path
         id="path76"
         style="fill:#ffffff;fill-opacity:1;fill-rule:nonzero;stroke:none"
         d="m 3557.28,559.816 h -28.94 V 470.93 h -10.68 v 88.886 h -28.81 v 9.004 h 68.43 v -9.004" /><path
         id="path78"
         style="fill:#ffffff;fill-opacity:1;fill-rule:nonzero;stroke:none"
         d="m 1113.96,268.359 -9.65,29.071 c -2.05,6.679 -3.72,12.859 -5.01,18.64 h -0.39 c -1.28,-5.922 -3.08,-12.09 -4.89,-18.261 l -9.77,-29.45 z m 24.06,-40.269 h -11.33 l -10.54,31.769 h -34.09 l -10.29,-31.769 h -10.94 l 32.42,98.019 h 12.35 l 32.42,-98.019" /><path
         id="path80"
         style="fill:#ffffff;fill-opacity:1;fill-rule:nonzero;stroke:none"
         d="m 1249.35,267.461 c 0,-29.461 -15.18,-40.91 -34.74,-40.91 -18.26,0 -32.8,10.668 -32.8,40.258 v 59.171 h 10.68 v -59.289 c 0,-22.261 9.78,-31.261 22.64,-31.261 14.15,0 23.54,9.519 23.54,31.261 v 59.289 h 10.68 v -58.519" /><path
         id="path82"
         style="fill:#ffffff;fill-opacity:1;fill-rule:nonzero;stroke:none"
         d="m 1311.4,236.578 c 3.21,-0.508 7.85,-0.637 12.48,-0.637 26.5,0 41.03,15.047 41.03,43.09 0,25.469 -13.64,39.231 -39.1,39.231 -6.18,0 -11.06,-0.641 -14.41,-1.282 z m -10.68,88.242 c 7.2,1.16 15.57,2.059 24.7,2.059 39.36,0 50.68,-23.277 50.68,-47.328 0,-15.571 -4.11,-28.821 -13.38,-38.473 -8.61,-8.867 -22.89,-13.758 -40.77,-13.758 -8.11,0 -15.05,0.258 -21.23,1.032 v 96.468" /><path
         id="path84"
         style="fill:#ffffff;fill-opacity:1;fill-rule:nonzero;stroke:none"
         d="m 1421.83,326.109 h 10.67 V 228.09 h -10.67 v 98.019" /><path
         id="path86"
         style="fill:#ffffff;fill-opacity:1;fill-rule:nonzero;stroke:none"
         d="m 1489.45,276.59 c 0,-20.84 10.8,-41.16 30.74,-41.16 20.2,0 30.87,19.679 30.87,42.058 0,19.684 -9.64,41.282 -30.61,41.282 -21.61,0 -31,-21.34 -31,-42.18 z m 72.81,1.422 c 0,-34.481 -19.3,-51.461 -42.46,-51.461 -24.31,0 -41.54,19.168 -41.54,49.777 0,31.902 18.14,51.32 42.7,51.32 25.08,0 41.3,-20.07 41.3,-49.636" /><path
         id="path88"
         style="fill:#ffffff;fill-opacity:1;fill-rule:nonzero;stroke:none"
         d="M 1673.7,326.109 1640,228.09 h -11.32 l -31,97.89 h 11.58 l 15.05,-49.14 c 4.11,-13.25 7.72,-25.59 10.28,-37.039 h 0.39 c 2.57,11.449 6.56,24.179 10.94,37.039 l 16.33,49.269 h 11.45" /><path
         id="path90"
         style="fill:#ffffff;fill-opacity:1;fill-rule:nonzero;stroke:none"
         d="m 1713.77,326.109 h 10.68 V 228.09 h -10.68 v 98.019" /><path
         id="path92"
         style="fill:#ffffff;fill-opacity:1;fill-rule:nonzero;stroke:none"
         d="m 1819.6,314.02 c -2.83,1.789 -9,4.5 -17.24,4.5 -13.63,0 -18.78,-8.372 -18.78,-15.442 0,-9.637 5.92,-14.527 19.04,-20.058 15.82,-6.692 23.93,-14.79 23.93,-28.809 0,-15.57 -11.33,-27.531 -32.42,-27.531 -8.88,0 -18.52,2.699 -23.41,6.172 l 2.96,8.878 c 5.27,-3.468 13.12,-6.05 21.1,-6.05 13.12,0 20.83,7.082 20.83,17.629 0,9.652 -5.27,15.562 -18.01,20.703 -14.79,5.539 -24.82,14.148 -24.82,27.66 0,14.906 12.09,25.848 29.97,25.848 9.26,0 16.34,-2.309 20.07,-4.629 l -3.22,-8.871" /><path
         id="path94"
         style="fill:#ffffff;fill-opacity:1;fill-rule:nonzero;stroke:none"
         d="m 1940.59,267.461 c 0,-29.461 -15.18,-40.91 -34.74,-40.91 -18.26,0 -32.8,10.668 -32.8,40.258 v 59.171 h 10.68 v -59.289 c 0,-22.261 9.78,-31.261 22.64,-31.261 14.15,0 23.54,9.519 23.54,31.261 v 59.289 h 10.68 v -58.519" /><path
         id="path96"
         style="fill:#ffffff;fill-opacity:1;fill-rule:nonzero;stroke:none"
         d="m 2038.02,268.359 -9.65,29.071 c -2.06,6.679 -3.73,12.859 -5.02,18.64 h -0.38 c -1.29,-5.922 -3.09,-12.09 -4.89,-18.261 l -9.77,-29.45 z m 24.06,-40.269 h -11.32 l -10.55,31.769 h -34.09 l -10.29,-31.769 h -10.94 l 32.42,98.019 h 12.34 l 32.43,-98.019" /><path
         id="path98"
         style="fill:#ffffff;fill-opacity:1;fill-rule:nonzero;stroke:none"
         d="m 2157.07,228.09 h -51.2 v 98.019 h 10.68 v -88.89 h 40.52 v -9.129" /><path
         id="path100"
         style="fill:#ffffff;fill-opacity:1;fill-rule:nonzero;stroke:none"
         d="m 2352.36,228.09 h -10.55 l -2.44,44.121 c -0.77,14.027 -1.81,32.16 -1.67,42.187 h -0.39 c -3.21,-11.058 -7.21,-23.148 -11.96,-36.777 L 2307.86,228.48 H 2300 l -16.33,48.11 c -4.76,14.148 -8.49,26.488 -11.19,37.808 h -0.39 c -0.25,-11.957 -1.02,-28.16 -1.93,-43.207 l -2.69,-43.101 h -10.17 l 6.82,98.019 h 13.12 l 17.24,-49.781 c 4.11,-12.219 7.33,-22.637 9.9,-32.797 h 0.39 c 2.44,9.91 5.78,20.199 10.16,32.797 l 17.88,49.781 h 13.38 l 6.17,-98.019" /><path
         id="path102"
         style="fill:#ffffff;fill-opacity:1;fill-rule:nonzero;stroke:none"
         d="m 2452.61,228.09 h -51.71 v 98.019 h 49.52 v -9.007 h -38.84 v -33.18 h 36.53 v -8.871 h -36.53 v -37.949 h 41.03 v -9.012" /><path
         id="path104"
         style="fill:#ffffff;fill-opacity:1;fill-rule:nonzero;stroke:none"
         d="m 2508.51,236.578 c 3.21,-0.508 7.84,-0.637 12.48,-0.637 26.5,0 41.03,15.047 41.03,43.09 0,25.469 -13.64,39.231 -39.1,39.231 -6.18,0 -11.07,-0.641 -14.41,-1.282 z m -10.67,88.242 c 7.19,1.16 15.55,2.059 24.69,2.059 39.36,0 50.68,-23.277 50.68,-47.328 0,-15.571 -4.11,-28.821 -13.38,-38.473 -8.61,-8.867 -22.89,-13.758 -40.77,-13.758 -8.11,0 -15.05,0.258 -21.22,1.032 v 96.468" /><path
         id="path106"
         style="fill:#ffffff;fill-opacity:1;fill-rule:nonzero;stroke:none"
         d="m 2618.93,326.109 h 10.67 V 228.09 h -10.67 v 98.019" /><path
         id="path108"
         style="fill:#ffffff;fill-opacity:1;fill-rule:nonzero;stroke:none"
         d="m 2727.08,268.359 -9.65,29.071 c -2.06,6.679 -3.73,12.859 -5.01,18.64 h -0.39 c -1.29,-5.922 -3.09,-12.09 -4.89,-18.261 l -9.78,-29.45 z m 24.05,-40.269 h -11.32 l -10.55,31.769 h -34.08 l -10.29,-31.769 h -10.94 l 32.41,98.019 h 12.36 l 32.41,-98.019" /><path
         id="path110"
         style="fill:#ffffff;fill-opacity:1;fill-rule:nonzero;stroke:none"
         d="m 2865.13,236.578 c 3.21,-0.508 7.84,-0.637 12.48,-0.637 26.5,0 41.03,15.047 41.03,43.09 0,25.469 -13.64,39.231 -39.1,39.231 -6.18,0 -11.07,-0.641 -14.41,-1.282 z m -10.67,88.242 c 7.2,1.16 15.55,2.059 24.7,2.059 39.35,0 50.67,-23.277 50.67,-47.328 0,-15.571 -4.11,-28.821 -13.38,-38.473 -8.61,-8.867 -22.89,-13.758 -40.77,-13.758 -8.11,0 -15.05,0.258 -21.22,1.032 v 96.468" /><path
         id="path112"
         style="fill:#ffffff;fill-opacity:1;fill-rule:nonzero;stroke:none"
         d="m 3027.26,228.09 h -51.71 v 98.019 h 49.52 v -9.007 h -38.84 v -33.18 h 36.53 v -8.871 h -36.53 v -37.949 h 41.03 v -9.012" /><path
         id="path114"
         style="fill:#ffffff;fill-opacity:1;fill-rule:nonzero;stroke:none"
         d="m 3116.22,314.02 c -2.84,1.789 -9.01,4.5 -17.24,4.5 -13.63,0 -18.78,-8.372 -18.78,-15.442 0,-9.637 5.92,-14.527 19.03,-20.058 15.82,-6.692 23.93,-14.79 23.93,-28.809 0,-15.57 -11.32,-27.531 -32.41,-27.531 -8.88,0 -18.53,2.699 -23.41,6.172 l 2.96,8.878 c 5.27,-3.468 13.11,-6.05 21.09,-6.05 13.12,0 20.84,7.082 20.84,17.629 0,9.652 -5.27,15.562 -18.01,20.703 -14.79,5.539 -24.83,14.148 -24.83,27.66 0,14.906 12.1,25.848 29.98,25.848 9.26,0 16.33,-2.309 20.06,-4.629 l -3.21,-8.871" /><path
         id="path116"
         style="fill:#ffffff;fill-opacity:1;fill-rule:nonzero;stroke:none"
         d="m 3169.67,326.109 h 10.68 V 228.09 h -10.68 v 98.019" /><path
         id="path118"
         style="fill:#ffffff;fill-opacity:1;fill-rule:nonzero;stroke:none"
         d="m 3301.61,232.078 c -5.28,-2.047 -15.57,-5.008 -27.91,-5.008 -38.47,0 -47.6,28.68 -47.6,49.391 0,29.84 19.42,50.539 50.16,50.539 9.4,0 17.76,-1.789 22.64,-4.109 l -2.82,-8.871 c -4.77,2.179 -10.94,3.98 -20.07,3.98 -23.15,0 -38.72,-14.922 -38.72,-40.898 0,-26.5 14.79,-41.293 37.18,-41.293 8.23,0 13.76,1.293 16.59,2.832 v 31.39 h -19.81 v 8.617 h 30.36 v -46.57" /><path
         id="path120"
         style="fill:#ffffff;fill-opacity:1;fill-rule:nonzero;stroke:none"
         d="m 3419.11,228.09 h -10.68 l -31.26,51.59 c -6.56,10.929 -12.86,21.859 -17.62,32.66 l -0.51,-0.129 c 0.9,-12.473 1.02,-23.922 1.02,-40.891 v -43.23 h -10.03 v 98.019 h 11.2 l 31.64,-51.578 c 6.94,-11.711 12.6,-21.871 17.11,-32.031 l 0.25,0.129 c -1.03,13.641 -1.29,25.34 -1.29,40.781 v 42.699 h 10.17 V 228.09" /><path
         id="path122"
         style="fill:#ffffff;fill-opacity:1;fill-rule:nonzero;stroke:none"
         d="m 3522.2,228.09 h -51.71 v 98.019 h 49.52 v -9.007 h -38.84 v -33.18 h 36.53 v -8.871 h -36.53 v -37.949 h 41.03 v -9.012" /><path
         id="path124"
         style="fill:#ffffff;fill-opacity:1;fill-rule:nonzero;stroke:none"
         d="m 3590.7,279.68 c 13.63,0 22.38,7.711 22.38,19.55 0,14.532 -10.94,19.032 -22.9,19.032 -5.79,0 -9.9,-0.512 -12.09,-1.032 v -37.55 z m 14.92,-4.629 c 7.59,-2.449 12.09,-9.781 14.4,-20.461 3.09,-14.141 5.28,-22.77 7.21,-26.5 h -11.06 c -1.55,2.84 -3.73,11.449 -6.31,23.68 -2.82,13.628 -8.23,19.671 -19.81,19.671 h -11.96 V 228.09 h -10.67 v 96.601 c 6.04,1.289 14.53,2.059 22.24,2.059 12.74,0 21.11,-2.57 26.89,-7.98 4.63,-4.239 7.33,-10.93 7.33,-18.25 0,-13 -7.84,-21.36 -18.26,-25.09 v -0.379" /><path
         id="path126"
         style="fill:none;stroke:#ffffff;stroke-width:15;stroke-linecap:butt;stroke-linejoin:miter;stroke-miterlimit:4;stroke-dasharray:none;stroke-opacity:1"
         d="M 1585.33,7.5 H 2896.21" /></g></g></svg>